<?xml version="1.0" encoding="UTF-8"?>
<svg xmlns="http://www.w3.org/2000/svg" xmlns:xlink="http://www.w3.org/1999/xlink" width="96px" height="18px" viewBox="0 0 93 18" version="1.1">
<g id="surface1">
<path style=" stroke:none;fill-rule:nonzero;fill:rgb(99.607843%,0%,60.784316%);fill-opacity:1;" d="M 81.328125 5.039062 L 83.507812 5.039062 L 83.691406 5.496094 L 84.371094 7.511719 L 85.054688 9.480469 L 85.644531 11.21875 L 85.644531 11.359375 L 85.824219 11.359375 L 85.914062 10.945312 L 86.6875 8.65625 L 87.367188 6.6875 L 87.914062 5.085938 L 87.960938 5.039062 L 90.09375 5.039062 L 90.09375 13.648438 L 88.503906 13.648438 L 88.503906 7.96875 L 88.324219 7.96875 L 88.230469 8.382812 L 87.640625 10.074219 L 86.960938 12.042969 L 86.414062 13.601562 L 86.371094 13.648438 L 84.960938 13.648438 L 84.554688 12.503906 L 83.191406 8.566406 L 83.007812 8.0625 L 83.007812 7.96875 L 82.875 7.96875 L 82.875 13.601562 L 82.828125 13.648438 L 81.285156 13.648438 L 81.285156 5.085938 Z M 81.328125 5.039062 "/>
<path style=" stroke:none;fill-rule:nonzero;fill:rgb(99.607843%,0%,60.784316%);fill-opacity:1;" d="M 72.203125 5.039062 L 73.835938 5.039062 L 73.882812 10.671875 L 73.972656 11.21875 L 74.199219 11.679688 L 74.5625 12 L 74.925781 12.183594 L 75.699219 12.273438 L 76.378906 12.183594 L 76.925781 11.90625 L 77.195312 11.585938 L 77.378906 11.082031 L 77.425781 10.898438 L 77.46875 5.039062 L 79.105469 5.039062 L 79.148438 5.085938 L 79.148438 10.761719 L 79.058594 11.449219 L 78.878906 12.042969 L 78.558594 12.640625 L 78.195312 13.050781 L 77.695312 13.371094 L 77.152344 13.601562 L 76.5625 13.738281 L 76.109375 13.785156 L 75.199219 13.785156 L 74.519531 13.691406 L 73.699219 13.417969 L 73.203125 13.097656 L 72.835938 12.730469 L 72.519531 12.226562 L 72.292969 11.542969 L 72.203125 10.945312 Z M 72.203125 5.039062 "/>
<path style=" stroke:none;fill-rule:nonzero;fill:rgb(99.607843%,0%,60.784316%);fill-opacity:1;" d="M 46.589844 5.039062 L 52.222656 5.039062 L 52.265625 5.085938 L 52.265625 6.457031 L 48.269531 6.457031 L 48.269531 8.472656 L 51.722656 8.472656 L 51.765625 8.519531 L 51.765625 9.847656 L 51.722656 9.894531 L 48.269531 9.894531 L 48.269531 12.226562 L 52.359375 12.226562 L 52.359375 13.648438 L 46.589844 13.648438 Z M 46.589844 5.039062 "/>
<path style=" stroke:none;fill-rule:nonzero;fill:rgb(99.607843%,0%,60.784316%);fill-opacity:1;" d="M 32.332031 5.039062 L 37.960938 5.039062 L 38.007812 5.085938 L 38.007812 6.457031 L 34.011719 6.457031 L 34.011719 8.472656 L 37.464844 8.472656 L 37.507812 8.519531 L 37.507812 9.847656 L 37.464844 9.894531 L 34.011719 9.894531 L 34.011719 12.226562 L 38.097656 12.226562 L 38.097656 13.648438 L 32.332031 13.648438 Z M 32.332031 5.039062 "/>
<path style=" stroke:none;fill-rule:nonzero;fill:rgb(99.607843%,0%,60.784316%);fill-opacity:1;" d="M 56.398438 4.902344 L 57.261719 4.949219 L 58.078125 5.132812 L 58.535156 5.3125 L 59.03125 5.636719 L 59.351562 5.957031 L 59.261719 6.183594 L 58.804688 6.78125 L 58.535156 7.144531 L 58.304688 7.101562 L 57.851562 6.734375 L 57.308594 6.503906 L 56.808594 6.414062 L 56.125 6.414062 L 55.582031 6.550781 L 55.308594 6.734375 L 55.128906 7.054688 L 55.128906 7.605469 L 55.355469 7.96875 L 55.808594 8.199219 L 57.898438 8.703125 L 58.625 9.023438 L 59.078125 9.390625 L 59.398438 9.800781 L 59.625 10.394531 L 59.667969 10.578125 L 59.667969 11.632812 L 59.488281 12.273438 L 59.214844 12.730469 L 58.941406 13.050781 L 58.488281 13.371094 L 57.808594 13.648438 L 57.082031 13.785156 L 56.171875 13.785156 L 55.492188 13.691406 L 54.582031 13.417969 L 53.992188 13.097656 L 53.492188 12.6875 L 53.175781 12.273438 L 53.21875 12.089844 L 53.8125 11.359375 L 54.082031 11.039062 L 54.265625 11.039062 L 54.582031 11.449219 L 55.082031 11.863281 L 55.671875 12.136719 L 55.992188 12.226562 L 56.355469 12.273438 L 56.808594 12.273438 L 57.351562 12.136719 L 57.671875 11.953125 L 57.851562 11.679688 L 57.898438 11.542969 L 57.898438 10.898438 L 57.761719 10.625 L 57.445312 10.351562 L 56.808594 10.121094 L 55.398438 9.800781 L 54.71875 9.527344 L 54.265625 9.25 L 53.945312 8.976562 L 53.628906 8.472656 L 53.492188 8.105469 L 53.402344 7.605469 L 53.449219 6.871094 L 53.585938 6.414062 L 53.855469 5.957031 L 54.082031 5.726562 L 54.445312 5.40625 L 55.128906 5.085938 L 55.808594 4.949219 Z M 56.398438 4.902344 "/>
<path style=" stroke:none;fill-rule:nonzero;fill:rgb(99.607843%,0%,60.784316%);fill-opacity:1;" d="M 27.429688 4.902344 L 28.199219 4.949219 L 29.0625 5.132812 L 29.789062 5.496094 L 30.335938 6 L 30.652344 6.457031 L 30.789062 6.734375 L 30.742188 6.960938 L 29.652344 7.648438 L 29.425781 7.648438 L 29.109375 7.054688 L 28.699219 6.6875 L 28.246094 6.503906 L 27.429688 6.414062 L 26.792969 6.503906 L 26.335938 6.6875 L 25.929688 7.007812 L 25.609375 7.511719 L 25.429688 7.96875 L 25.292969 8.839844 L 25.292969 9.847656 L 25.429688 10.71875 L 25.65625 11.265625 L 26.019531 11.769531 L 26.519531 12.089844 L 26.929688 12.226562 L 27.246094 12.273438 L 27.65625 12.273438 L 28.246094 12.183594 L 28.789062 11.90625 L 29.0625 11.679688 L 29.335938 11.21875 L 29.515625 10.671875 L 29.835938 10.71875 L 30.695312 11.175781 L 30.925781 11.3125 L 30.789062 11.816406 L 30.46875 12.410156 L 30.0625 12.914062 L 29.609375 13.28125 L 29.015625 13.554688 L 28.289062 13.738281 L 27.972656 13.785156 L 27.246094 13.785156 L 26.292969 13.648438 L 25.566406 13.371094 L 25.019531 13.050781 L 24.523438 12.59375 L 24.113281 12 L 23.839844 11.449219 L 23.613281 10.671875 L 23.523438 10.121094 L 23.523438 8.609375 L 23.660156 7.832031 L 23.886719 7.144531 L 24.203125 6.550781 L 24.523438 6.136719 L 24.976562 5.679688 L 25.609375 5.3125 L 26.019531 5.132812 L 26.835938 4.949219 Z M 27.429688 4.902344 "/>
<path style=" stroke:none;fill-rule:nonzero;fill:rgb(99.607843%,0%,60.784316%);fill-opacity:1;" d="M 60.394531 5.039062 L 66.980469 5.039062 L 66.980469 6.457031 L 66.933594 6.503906 L 64.527344 6.503906 L 64.527344 13.648438 L 62.847656 13.648438 L 62.847656 6.503906 L 60.441406 6.503906 L 60.394531 6.457031 Z M 60.394531 5.039062 "/>
<path style=" stroke:none;fill-rule:nonzero;fill:rgb(99.607843%,0%,60.784316%);fill-opacity:1;" d="M 39.6875 5.039062 L 41.324219 5.039062 L 41.367188 5.085938 L 41.367188 12.226562 L 45.183594 12.226562 L 45.183594 13.648438 L 39.644531 13.648438 L 39.644531 5.085938 Z M 39.6875 5.039062 "/>
<path style=" stroke:none;fill-rule:nonzero;fill:rgb(99.607843%,0%,60.784316%);fill-opacity:1;" d="M 68.34375 5.039062 L 70.023438 5.039062 L 70.023438 13.648438 L 68.34375 13.648438 Z M 68.34375 5.039062 "/>
<path style=" stroke:none;fill-rule:nonzero;fill:rgb(99.607843%,0%,60.784316%);fill-opacity:1;" d="M 10.261719 9.390625 L 10.351562 9.390625 L 10.351562 13.1875 L 8.171875 14.472656 L 8.082031 14.425781 L 8.082031 10.671875 L 8.492188 10.394531 L 9.308594 9.9375 Z M 10.261719 9.390625 "/>
<path style=" stroke:none;fill-rule:nonzero;fill:rgb(99.607843%,0%,60.784316%);fill-opacity:1;" d="M 16.664062 3.710938 L 16.800781 3.710938 L 16.800781 7.464844 L 16.574219 7.648438 L 15.304688 8.382812 L 14.621094 8.792969 L 14.53125 8.792969 L 14.53125 4.992188 L 14.941406 4.71875 L 16.210938 3.988281 Z M 16.664062 3.710938 "/>
<path style=" stroke:none;fill-rule:nonzero;fill:rgb(99.607843%,0%,60.784316%);fill-opacity:1;" d="M 10.488281 13.511719 L 10.761719 13.601562 L 11.851562 14.242188 L 13.03125 14.929688 L 13.804688 15.386719 L 13.667969 15.523438 L 12.578125 16.164062 L 11.625 16.714844 L 11.445312 16.667969 L 10.308594 16.027344 L 9.082031 15.296875 L 8.355469 14.882812 L 8.355469 14.746094 L 9.398438 14.152344 Z M 10.488281 13.511719 "/>
<path style=" stroke:none;fill-rule:nonzero;fill:rgb(99.607843%,0%,60.784316%);fill-opacity:1;" d="M 8.855469 6.09375 L 9.082031 6.136719 L 10.261719 6.824219 L 11.125 7.328125 L 11.078125 7.464844 L 10.261719 7.925781 L 9.171875 8.566406 L 8.21875 9.113281 L 7.855469 9.296875 L 6.71875 8.65625 L 6.039062 8.246094 L 5.675781 8.015625 L 5.675781 7.925781 L 6.8125 7.28125 L 7.902344 6.640625 Z M 8.855469 6.09375 "/>
<path style=" stroke:none;fill-rule:nonzero;fill:rgb(99.607843%,0%,60.784316%);fill-opacity:1;" d="M 16.9375 8.886719 L 17.164062 8.929688 L 18.4375 9.664062 L 19.207031 10.121094 L 19.164062 10.257812 L 18.027344 10.898438 L 17.257812 11.359375 L 16.164062 12 L 15.847656 12.042969 L 14.757812 11.402344 L 13.757812 10.808594 L 13.757812 10.71875 L 14.894531 10.074219 L 15.984375 9.433594 Z M 16.9375 8.886719 "/>
<path style=" stroke:none;fill-rule:nonzero;fill:rgb(99.607843%,0%,60.784316%);fill-opacity:1;" d="M 13.304688 1.421875 L 13.804688 1.699219 L 14.941406 2.339844 L 15.9375 2.933594 L 16.574219 3.300781 L 16.574219 3.390625 L 15.304688 4.125 L 14.441406 4.628906 L 14.214844 4.582031 L 13.078125 3.941406 L 11.125 2.796875 L 11.171875 2.660156 L 12.351562 1.972656 Z M 13.304688 1.421875 "/>
<path style=" stroke:none;fill-rule:nonzero;fill:rgb(99.607843%,0%,60.784316%);fill-opacity:1;" d="M 11.625 11.082031 L 11.898438 11.175781 L 14.257812 12.546875 L 14.894531 12.914062 L 14.894531 15.570312 L 14.214844 15.203125 L 12.035156 13.921875 L 11.625 13.648438 Z M 11.625 11.082031 "/>
<path style=" stroke:none;fill-rule:nonzero;fill:rgb(99.607843%,0%,60.784316%);fill-opacity:1;" d="M 18.480469 11.082031 L 18.574219 11.082031 L 18.574219 13.691406 L 17.527344 14.289062 L 16.4375 14.929688 L 15.4375 15.523438 L 15.304688 15.523438 L 15.304688 12.960938 L 15.710938 12.6875 L 16.984375 11.953125 L 18.074219 11.3125 Z M 18.480469 11.082031 "/>
<path style=" stroke:none;fill-rule:nonzero;fill:rgb(99.607843%,0%,60.784316%);fill-opacity:1;" d="M 9.992188 2.613281 L 10.21875 2.703125 L 11.351562 3.34375 L 13.214844 4.445312 L 13.257812 4.488281 L 13.257812 7.101562 L 12.714844 6.824219 L 11.625 6.183594 L 10.445312 5.496094 L 9.992188 5.222656 Z M 9.992188 2.613281 "/>
<path style=" stroke:none;fill-rule:nonzero;fill:rgb(99.607843%,0%,60.784316%);fill-opacity:1;" d="M 9.492188 2.613281 L 9.582031 2.613281 L 9.582031 5.222656 L 8.492188 5.863281 L 7.3125 6.550781 L 6.359375 7.101562 L 6.3125 7.101562 L 6.3125 4.488281 L 6.992188 4.078125 L 9.355469 2.703125 Z M 9.492188 2.613281 "/>
<path style=" stroke:none;fill-rule:nonzero;fill:rgb(99.607843%,0%,60.784316%);fill-opacity:1;" d="M 5.449219 8.335938 L 5.675781 8.425781 L 6.71875 9.023438 L 7.628906 9.574219 L 7.675781 9.617188 L 7.675781 13.417969 L 7.445312 13.328125 L 6.402344 12.730469 L 5.496094 12.183594 L 5.449219 12.136719 Z M 5.449219 8.335938 "/>
<path style=" stroke:none;fill-rule:nonzero;fill:rgb(99.607843%,0%,60.784316%);fill-opacity:1;" d="M 17.210938 4.71875 L 17.664062 4.949219 L 18.753906 5.589844 L 19.4375 6 L 19.4375 9.800781 L 19.164062 9.710938 L 17.210938 8.566406 Z M 17.210938 4.71875 "/>
</g>
</svg>
