<?xml version="1.0" encoding="UTF-8"?>
<svg version="1.1" viewBox="0 0 2000 2000" width="500" height="500" xmlns="http://www.w3.org/2000/svg">
<path transform="translate(1547,489)" d="m0 0 5 1 28 16 19 11 24 14 21 12 26 15 24 14 14 8 24 14 28 16 17 10 27 16 7 5v444l-5-1-24-14-28-16-17-10-26-15-24-14-21-12-48-28-21-12-24-14-26-15-1-4v-374z" fill="#F50096"/>
<path transform="translate(574,647)" d="m0 0 5 1 26 15 24 14 21 12 17 10 26 15 24 14 28 16 24 14 26 15 17 10 23 13 3 2-2 4-42 24-17 10-21 12-17 10-16 9-10 6-21 12-13 8-11 6-28 16-24 14-26 15-24 14-23 13-24 14-28 16-15 9-19 11-3 2-23-13-48-28-26-15-24-14-28-16-22-13-21-12-24-14-26-15-20-12 2-4 11-7 23-13 25-15 25-14 15-9 28-16 24-14 71-41 16-9 22-13 35-20 24-14 23-13 14-8 22-13z" fill="#F50096"/>
<path transform="translate(1706,1227)" d="m0 0h3l1 25v148l-1 130-10 7-21 12-22 13-45 26-21 12-15 9-18 10-15 9-14 8-24 14-25 14-17 10-24 14-21 12-24 14-23 13-13 8-16 9-15 9h-2l-1-3v-299l4-5 25-14 20-12 35-20 43-25 52-30 14-8 17-10 14-8 16-9 27-16 14-8 17-10 16-9 24-14 25-14z" fill="#F50096"/>
<path transform="translate(1524,972)" d="m0 0 5 1 14 8 24 14 28 16 27 16 25 14 19 11 17 10 19 11 27 16 28 16 17 10 13 8-2 4-22 13-42 24-17 10-26 15-17 10-10 6-11 6-26 15-24 14-26 15-21 12-26 15-22 13-11 6-15 9-18 10-13 8-18 10-15 9-6-2-21-12-24-14-21-12-19-11-29-17-52-30-24-14-26-15-24-14-16-9-2-3 6-5 17-9 13-8 19-11 16-9 22-13 42-24 43-25 78-45 24-14 21-12 24-14 21-12 22-13z" fill="#F50096"/>
<path transform="translate(168,908)" d="m0 0 5 2 25 14 41 24 52 30 24 14 21 12 17 10 21 12 29 17 21 12 8 5v445h-3l-11-6-13-8-25-14-17-10-28-16-26-15-24-14-28-16-26-15-49-28-13-8-1-1-1-189v-42z" fill="#F50096"/>
<path transform="translate(765,1512)" d="m0 0 5 2 15 9 23 13 41 24 21 12 17 10 21 12 22 13 18 10 15 9 28 16 26 15 24 14 26 15 24 14 21 12 16 9 20 12 2 1-1 3-16 9-21 12-17 10-14 8-17 10-26 15-48 28-28 16-24 14-19 11-21 12-9 6-5-1-26-15-19-11-24-14-28-16-24-14-52-30-24-14-21-12-24-14-21-12-24-14-26-15-28-16-22-13-16-9-2-4 14-8 24-14 22-13 35-20 15-9 16-9 20-12 18-10 15-9 16-9 24-14 26-15 15-9z" fill="#F50096"/>
<path transform="translate(1090,106)" d="m0 0 6 1 11 7 16 9 24 14 21 12 19 11 24 14 28 16 48 28 26 15 24 14 26 15 22 13 14 8 48 28 28 16 1 3-11 7-23 13-24 14-52 30-23 13-17 10-24 14-42 24-17 10-19 11-9 6-5-2-21-12-24-14-26-15-24-14-28-16-17-10-52-30-24-14-14-8-24-14-21-12-24-14-28-16-24-14-23-13-6-4 2-4 15-9 26-15 24-14 26-15 24-14 26-15 24-14 25-14 20-12 21-12 24-14z" fill="#F50096"/>
<path transform="translate(699,241)" d="m0 0 5 1 25 14 24 14 23 13 10 6 26 15 24 14 28 16 26 15 24 14 26 15 28 16 27 16 23 13 41 24 16 9 10 7 1 5v299l-6-1-19-12-18-10-19-11-24-14-104-60-24-14-26-15-21-12-19-11-24-14-21-12-24-14-21-12-16-10-1-1z" fill="#F50096"/>
<path transform="translate(894,1226)" d="m0 0 14 8 27 15 24 14 26 15 19 11 21 12 17 10 21 12 24 14 25 14 13 8 23 13 24 14 29 17 16 9 17 10 38 22 7 5v304l-6-2-22-13-25-14-17-10-26-15-24-14-26-15-24-14-28-16-48-28-16-9-17-10-26-15-24-14-23-13-24-14-10-7v-303z" fill="#F50096"/>
<path transform="translate(740,1029)" d="m0 0h4v445l-11 7-25 14-17 10-49 28-26 15-24 14-21 12-24 14-23 13-39 23-5 2-1-91v-352l4-5 25-14 15-9 52-30 21-12 19-11 52-30 28-16 25-14 14-9z" fill="#F50096"/>
<path transform="translate(1496,368)" d="m0 0 4 1-1 444-16 10-23 13-27 16-25 14-10 6-21 12-23 13-17 10-26 15-21 12-24 14-14 8-15 9-2-4v-440l4-4 45-26 26-15 15-9 20-11 10-6 14-8 17-10 14-8 23-13 15-9 18-10 17-10 14-8z" fill="#F50096"/>
<path transform="translate(653,240)" d="m0 0 3 1-1 304-19 12-18 10-21 12-15 9-18 10-13 8-11 6-17 10-43 25-52 30-42 24-22 13-21 12-24 14-21 12-22 13-5 1v-303l8-6 21-12 53-31 21-12 24-14 28-16 24-14 21-12 43-25 21-12 24-14 18-10 15-9 21-12 23-13z" fill="#F50096"/>
</svg>
